<mxfile host="app.diagrams.net" modified="2021-06-25T03:36:19.684Z" agent="5.0 (Macintosh; Intel Mac OS X 10_14_6) AppleWebKit/537.36 (KHTML, like Gecko) Chrome/91.0.4472.106 Safari/537.36" etag="1utb1dhYZPbYXavbJmBf" version="14.8.0" type="github">
  <diagram name="Page-1" id="74e2e168-ea6b-b213-b513-2b3c1d86103e">
    <mxGraphModel dx="2264" dy="683" grid="1" gridSize="10" guides="1" tooltips="1" connect="1" arrows="1" fold="1" page="1" pageScale="1" pageWidth="1100" pageHeight="850" background="none" math="0" shadow="0">
      <root>
        <mxCell id="0" />
        <mxCell id="1" parent="0" />
        <mxCell id="7jv45i5DiAnNKl9LhLXf-71" value="" style="shape=cylinder3;whiteSpace=wrap;html=1;boundedLbl=1;backgroundOutline=1;size=15;" vertex="1" parent="1">
          <mxGeometry x="1090" y="370" width="90" height="80" as="geometry" />
        </mxCell>
        <mxCell id="7jv45i5DiAnNKl9LhLXf-72" value="消息队列" style="swimlane;html=1;startSize=20;fillColor=#fff2cc;strokeColor=#d6b656;" vertex="1" parent="1">
          <mxGeometry x="130" y="1100" width="370" height="880" as="geometry" />
        </mxCell>
        <mxCell id="7jv45i5DiAnNKl9LhLXf-73" style="edgeStyle=orthogonalEdgeStyle;rounded=1;orthogonalLoop=1;jettySize=auto;html=1;exitX=0.5;exitY=1;exitDx=0;exitDy=0;entryX=-0.015;entryY=0.6;entryDx=0;entryDy=0;entryPerimeter=0;" edge="1" parent="7jv45i5DiAnNKl9LhLXf-72" source="7jv45i5DiAnNKl9LhLXf-75" target="7jv45i5DiAnNKl9LhLXf-77">
          <mxGeometry relative="1" as="geometry" />
        </mxCell>
        <mxCell id="7jv45i5DiAnNKl9LhLXf-74" style="edgeStyle=orthogonalEdgeStyle;rounded=1;orthogonalLoop=1;jettySize=auto;html=1;exitX=0.5;exitY=0;exitDx=0;exitDy=0;entryX=0;entryY=0.5;entryDx=0;entryDy=0;" edge="1" parent="7jv45i5DiAnNKl9LhLXf-72" source="7jv45i5DiAnNKl9LhLXf-75" target="7jv45i5DiAnNKl9LhLXf-76">
          <mxGeometry relative="1" as="geometry" />
        </mxCell>
        <mxCell id="7jv45i5DiAnNKl9LhLXf-75" value="clerk-common-video" style="shape=dataStorage;whiteSpace=wrap;html=1;fixedSize=1;" vertex="1" parent="7jv45i5DiAnNKl9LhLXf-72">
          <mxGeometry x="10" y="425" width="100" height="80" as="geometry" />
        </mxCell>
        <mxCell id="7jv45i5DiAnNKl9LhLXf-76" value="" style="shape=dataStorage;whiteSpace=wrap;html=1;fixedSize=1;" vertex="1" parent="7jv45i5DiAnNKl9LhLXf-72">
          <mxGeometry x="230" y="300" width="100" height="70" as="geometry" />
        </mxCell>
        <mxCell id="7jv45i5DiAnNKl9LhLXf-77" value="" style="shape=dataStorage;whiteSpace=wrap;html=1;fixedSize=1;" vertex="1" parent="7jv45i5DiAnNKl9LhLXf-72">
          <mxGeometry x="230" y="490" width="100" height="80" as="geometry" />
        </mxCell>
        <mxCell id="7jv45i5DiAnNKl9LhLXf-78" value="预处理" style="swimlane;html=1;startSize=20;fillColor=#d5e8d4;strokeColor=#82b366;" vertex="1" parent="1">
          <mxGeometry x="500" y="1100" width="440" height="880" as="geometry" />
        </mxCell>
        <mxCell id="7jv45i5DiAnNKl9LhLXf-79" style="edgeStyle=orthogonalEdgeStyle;rounded=1;orthogonalLoop=1;jettySize=auto;html=1;exitX=1;exitY=0.5;exitDx=0;exitDy=0;entryX=0;entryY=0.5;entryDx=0;entryDy=0;" edge="1" parent="7jv45i5DiAnNKl9LhLXf-78" source="7jv45i5DiAnNKl9LhLXf-80" target="7jv45i5DiAnNKl9LhLXf-82">
          <mxGeometry relative="1" as="geometry" />
        </mxCell>
        <mxCell id="7jv45i5DiAnNKl9LhLXf-80" value="" style="rounded=1;whiteSpace=wrap;html=1;shadow=0;labelBackgroundColor=none;strokeWidth=1;fontFamily=Verdana;fontSize=8;align=center;" vertex="1" parent="7jv45i5DiAnNKl9LhLXf-78">
          <mxGeometry x="100" y="358.75" width="140" height="122.5" as="geometry" />
        </mxCell>
        <mxCell id="7jv45i5DiAnNKl9LhLXf-81" style="edgeStyle=orthogonalEdgeStyle;rounded=1;orthogonalLoop=1;jettySize=auto;html=1;exitX=0.5;exitY=0;exitDx=0;exitDy=0;entryX=0.5;entryY=1;entryDx=0;entryDy=0;" edge="1" parent="7jv45i5DiAnNKl9LhLXf-78" source="7jv45i5DiAnNKl9LhLXf-82" target="7jv45i5DiAnNKl9LhLXf-83">
          <mxGeometry relative="1" as="geometry" />
        </mxCell>
        <mxCell id="7jv45i5DiAnNKl9LhLXf-82" value="是否命中" style="rhombus;whiteSpace=wrap;html=1;rounded=0;shadow=0;labelBackgroundColor=none;strokeWidth=1;fontFamily=Verdana;fontSize=8;align=center;" vertex="1" parent="7jv45i5DiAnNKl9LhLXf-78">
          <mxGeometry x="310" y="390" width="80" height="60" as="geometry" />
        </mxCell>
        <mxCell id="7jv45i5DiAnNKl9LhLXf-83" value="end" style="ellipse;whiteSpace=wrap;html=1;" vertex="1" parent="7jv45i5DiAnNKl9LhLXf-78">
          <mxGeometry x="310" y="240" width="80" height="50" as="geometry" />
        </mxCell>
        <mxCell id="7jv45i5DiAnNKl9LhLXf-84" value="&lt;b style=&quot;font-family: &amp;#34;verdana&amp;#34; ; font-size: 8px&quot;&gt;定制化&lt;/b&gt;&lt;span style=&quot;font-family: &amp;#34;verdana&amp;#34; ; font-size: 8px&quot;&gt;去重逻辑&lt;/span&gt;&lt;br style=&quot;font-family: &amp;#34;verdana&amp;#34; ; font-size: 8px&quot;&gt;&lt;span style=&quot;font-family: &amp;#34;verdana&amp;#34; ; font-size: 8px&quot;&gt;1.存在相同业务下同md5的审核数据&lt;/span&gt;&lt;br style=&quot;font-family: &amp;#34;verdana&amp;#34; ; font-size: 8px&quot;&gt;&lt;span style=&quot;font-family: &amp;#34;verdana&amp;#34; ; font-size: 8px&quot;&gt;2.是否在名单库中&lt;/span&gt;" style="text;html=1;strokeColor=none;fillColor=none;align=center;verticalAlign=middle;whiteSpace=wrap;rounded=0;" vertex="1" parent="7jv45i5DiAnNKl9LhLXf-78">
          <mxGeometry x="115" y="380" width="110" height="80" as="geometry" />
        </mxCell>
        <mxCell id="7jv45i5DiAnNKl9LhLXf-85" value="数据落地" style="swimlane;html=1;startSize=20;fillColor=#d5e8d4;strokeColor=#82b366;" vertex="1" parent="1">
          <mxGeometry x="940" y="1100" width="440" height="880" as="geometry" />
        </mxCell>
        <mxCell id="7jv45i5DiAnNKl9LhLXf-86" value="business_recoed_0" style="shape=cylinder3;whiteSpace=wrap;html=1;boundedLbl=1;backgroundOutline=1;size=15;" vertex="1" parent="7jv45i5DiAnNKl9LhLXf-85">
          <mxGeometry x="90" y="200" width="120" height="80" as="geometry" />
        </mxCell>
        <mxCell id="7jv45i5DiAnNKl9LhLXf-89" value="&lt;span&gt;business_recoed_1&lt;/span&gt;" style="shape=cylinder3;whiteSpace=wrap;html=1;boundedLbl=1;backgroundOutline=1;size=15;" vertex="1" parent="7jv45i5DiAnNKl9LhLXf-85">
          <mxGeometry x="260" y="200" width="120" height="80" as="geometry" />
        </mxCell>
        <mxCell id="7jv45i5DiAnNKl9LhLXf-90" value="audit_detail_0" style="shape=cylinder3;whiteSpace=wrap;html=1;boundedLbl=1;backgroundOutline=1;size=15;" vertex="1" parent="7jv45i5DiAnNKl9LhLXf-85">
          <mxGeometry x="90" y="330" width="120" height="80" as="geometry" />
        </mxCell>
        <mxCell id="7jv45i5DiAnNKl9LhLXf-91" value="&lt;span&gt;audit_detail_0&lt;/span&gt;" style="shape=cylinder3;whiteSpace=wrap;html=1;boundedLbl=1;backgroundOutline=1;size=15;" vertex="1" parent="7jv45i5DiAnNKl9LhLXf-85">
          <mxGeometry x="260" y="330" width="120" height="80" as="geometry" />
        </mxCell>
        <mxCell id="7jv45i5DiAnNKl9LhLXf-92" value="common_video" style="shape=cylinder3;whiteSpace=wrap;html=1;boundedLbl=1;backgroundOutline=1;size=15;" vertex="1" parent="7jv45i5DiAnNKl9LhLXf-85">
          <mxGeometry x="90" y="460" width="120" height="80" as="geometry" />
        </mxCell>
        <mxCell id="7jv45i5DiAnNKl9LhLXf-87" value="上游系统" style="swimlane;html=1;startSize=20;fillColor=#d5e8d4;strokeColor=#82b366;" vertex="1" parent="1">
          <mxGeometry x="-220" y="1100" width="350" height="880" as="geometry" />
        </mxCell>
        <mxCell id="77e6c97f196da883-8" value="风控规则引擎&lt;br&gt;" style="rounded=1;whiteSpace=wrap;html=1;shadow=0;labelBackgroundColor=none;strokeWidth=1;fontFamily=Verdana;fontSize=8;align=center;" parent="7jv45i5DiAnNKl9LhLXf-87" vertex="1">
          <mxGeometry x="80" y="145" width="100" height="60" as="geometry" />
        </mxCell>
        <mxCell id="7jv45i5DiAnNKl9LhLXf-38" style="edgeStyle=orthogonalEdgeStyle;rounded=1;orthogonalLoop=1;jettySize=auto;html=1;exitX=1;exitY=0.5;exitDx=0;exitDy=0;entryX=0;entryY=0.5;entryDx=0;entryDy=0;" edge="1" parent="7jv45i5DiAnNKl9LhLXf-87" source="77e6c97f196da883-8">
          <mxGeometry relative="1" as="geometry">
            <mxPoint x="330" y="450" as="targetPoint" />
          </mxGeometry>
        </mxCell>
        <mxCell id="7jv45i5DiAnNKl9LhLXf-39" style="edgeStyle=orthogonalEdgeStyle;rounded=1;orthogonalLoop=1;jettySize=auto;html=1;exitX=1;exitY=0.5;exitDx=0;exitDy=0;" edge="1" parent="7jv45i5DiAnNKl9LhLXf-87" source="77e6c97f196da883-10">
          <mxGeometry relative="1" as="geometry">
            <mxPoint x="350" y="460" as="targetPoint" />
            <Array as="points">
              <mxPoint x="180" y="460" />
              <mxPoint x="340" y="460" />
            </Array>
          </mxGeometry>
        </mxCell>
        <mxCell id="77e6c97f196da883-10" value="&lt;span&gt;脚本中心&lt;/span&gt;" style="rounded=1;whiteSpace=wrap;html=1;shadow=0;labelBackgroundColor=none;strokeWidth=1;fontFamily=Verdana;fontSize=8;align=center;" parent="7jv45i5DiAnNKl9LhLXf-87" vertex="1">
          <mxGeometry x="80" y="430" width="100" height="60" as="geometry" />
        </mxCell>
        <mxCell id="7jv45i5DiAnNKl9LhLXf-40" style="edgeStyle=orthogonalEdgeStyle;rounded=1;orthogonalLoop=1;jettySize=auto;html=1;exitX=1;exitY=0.5;exitDx=0;exitDy=0;entryX=-0.005;entryY=0.644;entryDx=0;entryDy=0;entryPerimeter=0;" edge="1" parent="7jv45i5DiAnNKl9LhLXf-87" source="77e6c97f196da883-14">
          <mxGeometry relative="1" as="geometry">
            <mxPoint x="329.5" y="461.52" as="targetPoint" />
            <Array as="points">
              <mxPoint x="330" y="760" />
            </Array>
          </mxGeometry>
        </mxCell>
        <mxCell id="77e6c97f196da883-14" value="策略" style="rounded=1;whiteSpace=wrap;html=1;shadow=0;labelBackgroundColor=none;strokeWidth=1;fontFamily=Verdana;fontSize=8;align=center;" parent="7jv45i5DiAnNKl9LhLXf-87" vertex="1">
          <mxGeometry x="70" y="730" width="100" height="60" as="geometry" />
        </mxCell>
        <mxCell id="7jv45i5DiAnNKl9LhLXf-93" value="ES" style="text;html=1;strokeColor=none;fillColor=none;align=center;verticalAlign=middle;whiteSpace=wrap;rounded=0;" vertex="1" parent="1">
          <mxGeometry x="1070" y="1570" width="40" height="20" as="geometry" />
        </mxCell>
        <mxCell id="7jv45i5DiAnNKl9LhLXf-96" style="edgeStyle=orthogonalEdgeStyle;rounded=1;orthogonalLoop=1;jettySize=auto;html=1;exitX=1;exitY=0.5;exitDx=0;exitDy=0;entryX=0;entryY=0.5;entryDx=0;entryDy=0;entryPerimeter=0;" edge="1" parent="1" source="7jv45i5DiAnNKl9LhLXf-82" target="7jv45i5DiAnNKl9LhLXf-86">
          <mxGeometry relative="1" as="geometry" />
        </mxCell>
        <mxCell id="7jv45i5DiAnNKl9LhLXf-97" style="edgeStyle=orthogonalEdgeStyle;rounded=1;orthogonalLoop=1;jettySize=auto;html=1;exitX=1;exitY=0.5;exitDx=0;exitDy=0;entryX=0;entryY=0;entryDx=0;entryDy=52.5;entryPerimeter=0;" edge="1" parent="1" source="7jv45i5DiAnNKl9LhLXf-82" target="7jv45i5DiAnNKl9LhLXf-90">
          <mxGeometry relative="1" as="geometry" />
        </mxCell>
        <mxCell id="7jv45i5DiAnNKl9LhLXf-98" style="edgeStyle=orthogonalEdgeStyle;rounded=1;orthogonalLoop=1;jettySize=auto;html=1;exitX=1;exitY=0.5;exitDx=0;exitDy=0;entryX=0;entryY=0;entryDx=0;entryDy=52.5;entryPerimeter=0;" edge="1" parent="1" source="7jv45i5DiAnNKl9LhLXf-82" target="7jv45i5DiAnNKl9LhLXf-92">
          <mxGeometry relative="1" as="geometry" />
        </mxCell>
        <mxCell id="7jv45i5DiAnNKl9LhLXf-99" style="edgeStyle=orthogonalEdgeStyle;rounded=1;orthogonalLoop=1;jettySize=auto;html=1;exitX=1;exitY=0.5;exitDx=0;exitDy=0;" edge="1" parent="1" source="7jv45i5DiAnNKl9LhLXf-76" target="7jv45i5DiAnNKl9LhLXf-80">
          <mxGeometry relative="1" as="geometry" />
        </mxCell>
        <mxCell id="7jv45i5DiAnNKl9LhLXf-100" style="edgeStyle=orthogonalEdgeStyle;rounded=1;orthogonalLoop=1;jettySize=auto;html=1;exitX=1;exitY=0.5;exitDx=0;exitDy=0;entryX=0;entryY=0.5;entryDx=0;entryDy=0;" edge="1" parent="1" source="7jv45i5DiAnNKl9LhLXf-77" target="7jv45i5DiAnNKl9LhLXf-80">
          <mxGeometry relative="1" as="geometry" />
        </mxCell>
      </root>
    </mxGraphModel>
  </diagram>
</mxfile>
